<svg fill="#FFFFFF" xmlns="http://www.w3.org/2000/svg" xmlns:xlink="http://www.w3.org/1999/xlink" version="1.1" x="0px" y="0px" viewBox="0 0 100 100" style="enable-background:new 0 0 100 100;" xml:space="preserve"><g><path d="M89,9H11c-3.3,0-6,2.7-6,6v70c0,3.3,2.7,6,6,6h78c3.3,0,6-2.7,6-6V15C95,11.7,92.3,9,89,9z M91,85c0,1.1-0.9,2-2,2H11   c-1.1,0-2-0.9-2-2V25h74c0.5,0,1-0.5,1-1s-0.5-1-1-1H9v-8c0-1.1,0.9-2,2-2h78c1.1,0,2,0.9,2,2V85z"></path><path d="M46,15H14c-1.7,0-3,1.3-3,3c0,1.7,1.3,3,3,3h32c1.7,0,3-1.3,3-3C49,16.3,47.7,15,46,15z M46,19H14c-0.5,0-1-0.5-1-1   s0.5-1,1-1h32c0.5,0,1,0.5,1,1S46.5,19,46,19z"></path><circle cx="86" cy="18" r="2"></circle><circle cx="80" cy="18" r="2"></circle><circle cx="74" cy="18" r="2"></circle><path d="M50,29c-14.9,0-27,12.1-27,27c0,14.9,12.1,27,27,27s27-12.1,27-27C77,41.1,64.9,29,50,29z M50,79c-12.7,0-23-10.3-23-23   s10.3-23,23-23s23,10.3,23,23S62.7,79,50,79z"></path><path d="M58.3,37c-0.4-0.4-1-0.5-1.4-0.1c-0.4,0.4-0.5,1-0.1,1.4c0.1,0.1,3.7,4.5,5.4,11.2H51v-14c0-0.6-0.5-1-1-1s-1,0.4-1,1v14   H37.7c1.7-6.5,5.2-10.8,5.5-11.2c0.4-0.4,0.3-1-0.1-1.4c-0.4-0.4-1.1-0.3-1.4,0.1c-0.1,0.1-4.1,5-5.9,12.5h-5.2c-0.5,0-1,0.5-1,1   s0.5,1,1,1h4.8c-0.5,2.8-0.6,5.9-0.2,9.1h-4.7c-0.5,0-1,0.4-1,1c0,0.5,0.5,1,1,1h5c0.9,4,2.8,8.2,6.1,12.4c0.2,0.2,0.5,0.4,0.8,0.4   c0.2,0,0.4-0.1,0.6-0.2c0.4-0.3,0.5-1,0.2-1.4c-3-3.8-4.8-7.6-5.7-11.2H49v14c0,0.6,0.5,1,1,1s1-0.4,1-1v-14h11.4   c-0.9,3.6-2.6,7.4-5.6,11.2c-0.3,0.4-0.3,1.1,0.2,1.4c0.2,0.2,0.4,0.2,0.6,0.2c0.3,0,0.6-0.1,0.8-0.4c3.3-4.2,5.2-8.5,6.1-12.4h5   c0.5,0,1-0.5,1-1c0-0.6-0.5-1-1-1h-4.7c0.5-3.3,0.3-6.4-0.2-9.1h4.8c0.5,0,1-0.5,1-1s-0.5-1-1-1h-5.2C62.4,42,58.4,37.1,58.3,37z    M49,60.6H37.1c-0.5-3.3-0.4-6.4,0.1-9.1H49V60.6z M62.8,60.6H51v-9.1h11.7C63.2,54.2,63.3,57.3,62.8,60.6z"></path></g></svg>